<svg xmlns="http://www.w3.org/2000/svg" viewBox="0 0 750 500"><g id="freepik--background-complete--inject-8"><polygon points="32.12 402.62 32.12 443.57 92.01 443.57 158.06 443.57 158.06 402.62 32.12 402.62" style="fill:#f5f5f5"></polygon><polygon points="26.84 391.17 26.84 402.62 162.46 402.62 162.46 391.17 92.01 391.17 26.84 391.17" style="fill:#e0e0e0"></polygon><polygon points="94.65 443.57 158.06 443.57 158.06 402.62 162.46 402.62 162.46 391.17 92.01 391.17 92.01 401.56 94.65 443.57" style="fill:#e0e0e0"></polygon><rect x="49.74" y="409.22" width="25.54" height="6.16" style="fill:#e0e0e0"></rect><rect x="46.45" y="423.09" width="32.79" height="13.02" style="fill:#fff"></rect><polygon points="51.5 350.27 51.5 391.22 111.38 391.22 177.43 391.22 177.43 350.27 51.5 350.27" style="fill:#f5f5f5"></polygon><polygon points="46.21 338.82 46.21 350.27 181.84 350.27 181.84 338.82 111.38 338.82 46.21 338.82" style="fill:#e0e0e0"></polygon><polygon points="114.02 391.22 177.43 391.22 177.43 350.27 181.84 350.27 181.84 338.82 111.38 338.82 111.38 349.21 114.02 391.22" style="fill:#e0e0e0"></polygon><rect x="69.11" y="356.87" width="25.54" height="6.16" style="fill:#e0e0e0"></rect><rect x="65.82" y="370.75" width="32.79" height="13.02" style="fill:#fff"></rect><rect x="35.7" y="38.35" width="93.24" height="135.15" style="fill:#e0e0e0"></rect><rect x="31.02" y="38.35" width="93.24" height="135.15" style="fill:#f5f5f5"></rect><rect x="42.61" y="52.99" width="70.07" height="105.87" style="fill:#fff"></rect><path d="M112.68,158.86s0-.18,0-.52,0-.85,0-1.5c0-1.33,0-3.28,0-5.81,0-5.07,0-12.47-.06-21.81,0-18.66-.07-45.1-.11-76.23l.23.23-70.06,0h0l.25-.25c0,39.94,0,76.76,0,105.87l-.2-.2,51,.1,14.09.05,3.7,0c.84,0,1.28,0,1.28,0l-1.24,0-3.66,0-14,0-51.13.11h-.2v-.2c0-29.11,0-65.93,0-105.87v-.26h.26l70.06,0h.23V53c0,31.19-.08,57.68-.11,76.39,0,9.31,0,16.69-.07,21.75,0,2.51,0,4.44,0,5.76,0,.64,0,1.14,0,1.48S112.68,158.86,112.68,158.86Z" style="fill:#e0e0e0"></path><path d="M124.53,38.35a16.55,16.55,0,0,1-1.67,2.42c-1.08,1.44-2.62,3.41-4.37,5.54s-3.4,4-4.61,5.36a17,17,0,0,1-2,2.1,16.88,16.88,0,0,1,1.78-2.33L118.1,46l4.48-5.45A17.49,17.49,0,0,1,124.53,38.35Z" style="fill:#e0e0e0"></path><path d="M113,158.52a86.46,86.46,0,0,0,12.22,15.28" style="fill:#fff"></path><path d="M125.26,173.8a13,13,0,0,1-2.13-1.94A68.56,68.56,0,0,1,114.46,161a13.47,13.47,0,0,1-1.42-2.5,19.79,19.79,0,0,1,1.72,2.3c1,1.44,2.47,3.42,4.15,5.53s3.3,4,4.48,5.27A20.33,20.33,0,0,1,125.26,173.8Z" style="fill:#e0e0e0"></path><path d="M31,173.39l12.21-15.07" style="fill:#fff"></path><path d="M43.22,158.32a91.61,91.61,0,0,1-5.9,7.69A92.06,92.06,0,0,1,31,173.39a93.18,93.18,0,0,1,5.91-7.69A93.3,93.3,0,0,1,43.22,158.32Z" style="fill:#e0e0e0"></path><path d="M31,38.35A83.08,83.08,0,0,1,37,45.44a82.28,82.28,0,0,1,5.53,7.4,85.34,85.34,0,0,1-5.93-7.09A87.22,87.22,0,0,1,31,38.35Z" style="fill:#e0e0e0"></path><rect x="67.39" y="74.48" width="23.46" height="66.62" style="fill:#e0e0e0"></rect><path d="M632,429.25c-2.2-1.89-7.12-7.88-3.33-14.85,1.39-2.56,4.35-3.82,7-4.95s5.48-2.1,7.7-4c4.17-3.55,5.32-9.45,8.09-14.18,3.18-5.44,9.11-9.51,15.38-9.23,7.18.33,13.17,6.19,15.88,12.88s2.81,14.11,2.87,21.33c0,4-.15,8.49-3.08,11.19-2.7,2.49-6.77,2.52-10.43,2.4l-39.24-1.2" style="fill:#f5f5f5"></path><path d="M707.05,321.36H603.86l18.59,110.83a12.37,12.37,0,0,0,8.81,9.87l.36.1c.31.07.6.18.92.23a12.05,12.05,0,0,0,2.1.24v.11l.51-.08h46a13.23,13.23,0,0,0,2.53-.25,12.42,12.42,0,0,0,10.43-10.83l9-76.37.4-3h-.05L707,321.93Zm-19.47,70.69H677l1.07-32.16h12.27Zm3.78-32.16H701.5l-3.78,32.16h-9.11Zm-30.25,67.82-.65-27.94h15.25l-.93,27.94Zm-16.49-27.94h14.82l.64,27.94H646.79Zm1.14,27.94H633.34c-1.18-7.54-2.72-17.35-4.38-27.94h14.63ZM644,392.05l-2.5-32.16h17l.74,32.16Zm16.26,0-.74-32.16H677L676,392.05Zm-.91-39.88-.69-29.78h19.6l-1,29.78Zm-1,0H640.92l-2.31-29.78h19Zm-18.45,0H621.46c-.65-4.11-1.27-8-1.83-11.51-1.92-12-2.64-16.57-3-18.27h21Zm.6,7.72,2.5,32.16H627.75c-.51-3.26-1-6.56-1.55-9.86-1.2-7.6-2.39-15.19-3.52-22.3Zm-13.78,32.16h-10l-5.4-32.16h10.29C623.22,369.83,625,380.89,626.71,392.05Zm1.22,7.72c1.51,9.67,3,19.2,4.37,27.94h-9.56l-4.69-27.94Zm47.88,27.94.93-27.94h10.18l-2.38,27.94Zm2.51-75.54,1-29.78h14.22L691,352.17Zm-62.71-29.78c.41,2.15,2.29,13.87,4.81,29.78H610.07l-5-29.78Zm77.93,105.32h-8L688,399.77h8.87Zm8.86-75.54H692l2.54-29.78H705.9Z" style="fill:#e0e0e0"></path><polygon points="709.35 45.59 709.35 136.34 579.01 136.34 574.31 46.23 709.35 45.59" style="fill:#e0e0e0"></polygon><rect x="594.52" y="26.02" width="89.92" height="130.34" transform="translate(548.29 730.67) rotate(-90)" style="fill:#fff"></rect><path d="M705.27,136.77H573.69V45.61H705.27Zm-130.34-1.24H704V46.85H574.93Z" style="fill:#e0e0e0"></path><rect x="588.43" y="57.4" width="102.1" height="67.58" style="fill:#fff"></rect><path d="M690.53,57.4l-.5,0-1.45,0-5.61,0-21,.08-73.5.15.29-.3c0,20.65,0,43.53,0,67.57h0l-.32-.32,102.1.06-.25.26c.05-20.57.1-37.43.13-49.17,0-5.87.05-10.45.07-13.6q0-2.33,0-3.57c0-.81,0-1.24,0-1.24s0,.39,0,1.19,0,2,0,3.52c0,3.13,0,7.7.06,13.54,0,11.78.08,28.7.14,49.33v.26h-.26l-102.1.06h-.32V125h0c0-24,0-46.92,0-67.57v-.29h.3l73.69.14,21,.08,5.55,0h1.41Z" style="fill:#e0e0e0"></path><path d="M574.31,46a10.81,10.81,0,0,1,2.24,1.45c1.34,1,3.15,2.33,5.11,3.9s3.69,3.05,4.9,4.16a10.46,10.46,0,0,1,1.87,1.91c-.12.14-3.26-2.45-7.17-5.57S574.2,46.12,574.31,46Z" style="fill:#e0e0e0"></path><path d="M704.65,46.23c.11.14-3,2.75-6.86,5.84s-7.15,5.47-7.26,5.33,3-2.75,6.86-5.84S704.54,46.09,704.65,46.23Z" style="fill:#e0e0e0"></path><path d="M704.55,136.16,690,124.39" style="fill:#fff"></path><path d="M690,124.39c.12-.14,3.46,2.38,7.47,5.63s7.18,6,7.07,6.14-3.46-2.38-7.47-5.64S689.9,124.52,690,124.39Z" style="fill:#e0e0e0"></path><path d="M574.31,136.15c-.11-.14,2.93-2.73,6.79-5.78s7.07-5.41,7.18-5.27-2.92,2.73-6.78,5.78S574.42,136.29,574.31,136.15Z" style="fill:#e0e0e0"></path><rect x="629.97" y="57.65" width="22.63" height="64.25" transform="translate(551.51 731.05) rotate(-90)" style="fill:#e0e0e0"></rect></g><g id="freepik--Floor--inject-8"><path d="M707.05,443.57c0,.14-150.32.26-335.71.26s-335.74-.12-335.74-.26,150.29-.26,335.74-.26S707.05,443.42,707.05,443.57Z" style="fill:#263238"></path></g><g id="freepik--Device--inject-8"><path d="M118.18,94H626.94a6.74,6.74,0,0,1,6.74,6.74V425.44A14.57,14.57,0,0,1,619.12,440H125a14.57,14.57,0,0,1-14.57-14.57V101.74A7.75,7.75,0,0,1,118.18,94Z" style="fill:#141414"></path><path d="M88.55,414.42H655.45a0,0,0,0,1,0,0V431a13.72,13.72,0,0,1-13.72,13.72H102.27A13.72,13.72,0,0,1,88.55,431V414.42a0,0,0,0,1,0,0Z" style="fill:#141414"></path><rect x="124.47" y="107.73" width="493.7" height="292.21" style="fill:#f5f5f5"></rect><polygon points="320.47 414.42 327.51 425.61 426.5 425.61 433.03 414.42 320.47 414.42" style="fill:#263238"></polygon><rect x="110.51" y="414.31" width="523.26" height="1.67" style="fill:#263238"></rect></g><g id="freepik--Certification--inject-8"><path d="M264.26,94H209.9V74.84c0-13.51,10.95-24.94,24.46-24.94l29.9.47Z" style="fill:#e0e0e0"></path><path d="M233.19,49.87s30.94-2.81,30.94,37.54V401.26h242.8V76a26.67,26.67,0,0,0-26.72-26.66Z" style="fill:#fff"></path><path d="M233.19,49.87l179.63-.58,43.5-.12,23.13-.07a27,27,0,0,1,21.37,9.57,26.91,26.91,0,0,1,5.55,11,24.38,24.38,0,0,1,.57,3.09c.14,1,.13,2.09.2,3.14q0,3.13,0,6.3,0,12.63,0,25.67,0,26.05,0,53.59c0,73.34,0,154,0,238.6v1.46h-.26l-242.8,0h-.24v-.24c0-108.66.07-200.93.1-266,0-16.28,0-30.86,0-43.57,0-3.18,0-6.24-.18-9.17a55.78,55.78,0,0,0-1.16-8.36,43.41,43.41,0,0,0-2.38-7.33,33.55,33.55,0,0,0-3.48-6,26.51,26.51,0,0,0-8.77-7.51,28.84,28.84,0,0,0-8-2.82,29.37,29.37,0,0,0-5.14-.58c-1.16,0-1.76,0-1.76,0a14.78,14.78,0,0,1,1.76,0,29.64,29.64,0,0,1,5.16.54,28.8,28.8,0,0,1,8,2.8,26.45,26.45,0,0,1,8.83,7.52,33.85,33.85,0,0,1,3.52,6,43.78,43.78,0,0,1,2.41,7.36,56,56,0,0,1,1.18,8.39c.22,2.94.19,6,.19,9.18,0,12.71,0,27.29,0,43.57,0,65.11.05,157.38.09,266l-.24-.23,242.8,0-.26.26v-1.2c0-84.63,0-165.26,0-238.6q0-27.51,0-53.59V82.2c-.06-4.21.31-8.43-.75-12.43A26.54,26.54,0,0,0,500.49,59a26.52,26.52,0,0,0-21-9.43l-23.18,0-43.57.07Z" style="fill:#263238"></path><path d="M368.06,145.12c0,.14-14.77.26-33,.26s-33-.12-33-.26,14.76-.26,33-.26S368.06,145,368.06,145.12Z" style="fill:#263238"></path><path d="M382.84,153c0,.15-18.07.26-40.37.26s-40.36-.11-40.36-.26,18.07-.26,40.36-.26S382.84,152.86,382.84,153Z" style="fill:#263238"></path><path d="M388.14,184.05c0,.14-18.66.26-41.68.26s-41.68-.12-41.68-.26,18.66-.26,41.68-.26S388.14,183.9,388.14,184.05Z" style="fill:#263238"></path><path d="M442.59,214.31c0,.14-31.2.26-69.68.26s-69.68-.12-69.68-.26,31.19-.26,69.68-.26S442.59,214.16,442.59,214.31Z" style="fill:#263238"></path><path d="M442.59,223.33c0,.15-31.2.26-69.68.26s-69.68-.11-69.68-.26,31.19-.26,69.68-.26S442.59,223.19,442.59,223.33Z" style="fill:#263238"></path><path d="M442.59,232.36c0,.15-31.2.26-69.68.26s-69.68-.11-69.68-.26,31.19-.26,69.68-.26S442.59,232.22,442.59,232.36Z" style="fill:#263238"></path><path d="M442.59,241.39c0,.14-31.2.26-69.68.26s-69.68-.12-69.68-.26,31.19-.26,69.68-.26S442.59,241.25,442.59,241.39Z" style="fill:#263238"></path><path d="M442.59,250.42c0,.14-31.2.26-69.68.26s-69.68-.12-69.68-.26,31.19-.26,69.68-.26S442.59,250.27,442.59,250.42Z" style="fill:#263238"></path><path d="M356.08,259.45c0,.14-11.84.26-26.43.26s-26.42-.12-26.42-.26,11.83-.26,26.42-.26S356.08,259.3,356.08,259.45Z" style="fill:#263238"></path><path d="M325.21,98.48a5.61,5.61,0,0,1,6-5.65,5.74,5.74,0,0,1,4.67,2l-1.95,1.77a3.22,3.22,0,0,0-2.56-1.27,3.1,3.1,0,0,0,0,6.2,3.22,3.22,0,0,0,2.56-1.27l1.95,1.76a5.74,5.74,0,0,1-4.67,2.05A5.61,5.61,0,0,1,325.21,98.48Z" style="fill:#263238"></path><path d="M345.92,101.53v2.37h-8.71V93.05h8.51v2.37h-5.48v1.83h4.83v2.3h-4.83v2Z" style="fill:#263238"></path><path d="M352.37,101H350.7v2.88h-3.07V93.05h5c3,0,4.82,1.53,4.82,4a3.6,3.6,0,0,1-2.13,3.42l2.35,3.41h-3.29Zm0-5.55h-1.7v3.18h1.7c1.27,0,1.91-.59,1.91-1.58S353.67,95.47,352.4,95.47Z" style="fill:#263238"></path><path d="M361.25,95.48h-3.33V93.05h9.72v2.43h-3.32v8.42h-3.07Z" style="fill:#263238"></path><path d="M368.79,93.05h3.07V103.9h-3.07Z" style="fill:#263238"></path><path d="M377.12,95.42v2.39h4.79v2.37h-4.79v3.72h-3.07V93.05h8.51v2.37Z" style="fill:#263238"></path><path d="M384,93.05h3.07V103.9H384Z" style="fill:#263238"></path><path d="M388.7,98.48a5.62,5.62,0,0,1,6-5.65,5.72,5.72,0,0,1,4.66,2l-1.95,1.77a3.21,3.21,0,0,0-2.56-1.27,3.1,3.1,0,0,0,0,6.2,3.21,3.21,0,0,0,2.56-1.27l1.95,1.76a5.72,5.72,0,0,1-4.66,2.05C391.23,104.12,388.7,101.78,388.7,98.48Z" style="fill:#263238"></path><path d="M407.78,101.79H403.2l-.86,2.11h-3.13L404,93.05h3l4.8,10.85h-3.19Zm-.89-2.26-1.4-3.47-1.4,3.47Z" style="fill:#263238"></path><path d="M414.47,95.48h-3.33V93.05h9.72v2.43h-3.32v8.42h-3.07Z" style="fill:#263238"></path><path d="M422,93.05h3.07V103.9H422Z" style="fill:#263238"></path><path d="M426.7,98.48c0-3.26,2.56-5.65,6-5.65s6,2.39,6,5.65-2.56,5.64-6,5.64S426.7,101.73,426.7,98.48Zm9,0a2.93,2.93,0,1,0-2.93,3.1A2.9,2.9,0,0,0,435.66,98.48Z" style="fill:#263238"></path><path d="M450.7,93.05V103.9h-2.53l-4.79-5.78v5.78h-3V93.05h2.52l4.79,5.78V93.05Z" style="fill:#263238"></path><path d="M463,297.56c0,.14-13.84.26-30.9.26s-30.91-.12-30.91-.26,13.84-.26,30.91-.26S463,297.42,463,297.56Z" style="fill:#263238"></path><path d="M463,306.28c0,.14-13.84.26-30.9.26s-30.91-.12-30.91-.26S415,306,432.11,306,463,306.14,463,306.28Z" style="fill:#263238"></path><path d="M458.9,344.17a2.19,2.19,0,0,1,0-.44c0-.31-.05-.73-.09-1.27q0-.42-.06-.93c0-.35-.11-.72-.17-1.12a19.73,19.73,0,0,0-.57-2.76,25.19,25.19,0,0,0-3-7.09,26.58,26.58,0,0,0-31.93-11.33,27.75,27.75,0,0,0-3.46,1.52,29,29,0,0,0-3.26,2.09,30.19,30.19,0,0,0-3,2.56,30.88,30.88,0,0,0-2.6,3.08,25.52,25.52,0,0,0-3.79,7.31,26.28,26.28,0,0,0,0,16.75,25.52,25.52,0,0,0,3.79,7.31,30.88,30.88,0,0,0,2.6,3.08,30.19,30.19,0,0,0,3,2.56,24.92,24.92,0,0,0,6.72,3.62A26.75,26.75,0,0,0,437,370.28a26.73,26.73,0,0,0,18-12.51,25.19,25.19,0,0,0,3-7.09,19.44,19.44,0,0,0,.57-2.76c.06-.4.13-.77.17-1.11s0-.66.06-.94c0-.54.07-1,.09-1.27a2,2,0,0,1,0-.43,2.3,2.3,0,0,1,0,.43l0,1.28c0,.28,0,.6,0,.94s-.09.72-.15,1.13a18.17,18.17,0,0,1-.52,2.78,25.31,25.31,0,0,1-2.92,7.19,26.88,26.88,0,0,1-32.34,11.64,28.15,28.15,0,0,1-3.53-1.54,27.09,27.09,0,0,1-3.32-2.13,30.07,30.07,0,0,1-3.08-2.6,31,31,0,0,1-2.65-3.14,26,26,0,0,1-3.87-7.45,26.72,26.72,0,0,1,0-17.07,26.13,26.13,0,0,1,3.87-7.45,29.68,29.68,0,0,1,2.66-3.13,30.26,30.26,0,0,1,3.07-2.61,26.92,26.92,0,0,1,39.19,8,25.43,25.43,0,0,1,2.92,7.19,18.06,18.06,0,0,1,.52,2.79c.06.41.12.78.15,1.12s0,.66,0,.95l0,1.27A2.44,2.44,0,0,1,458.9,344.17Z" style="fill:#070202"></path><circle cx="432.1" cy="344.17" r="17.22" transform="translate(-2.73 684.88) rotate(-76.62)" style="fill:#070202"></circle><path d="M470.4,329.34l-.72.4-2.15,1.14-8.27,4.31L446.19,342a13.16,13.16,0,0,1-4.25,1.36,5.78,5.78,0,0,1-4.52-1.38,4.23,4.23,0,0,1-1.33-2.15,2.73,2.73,0,0,1,.57-2.53,3.59,3.59,0,0,1,2.41-1.16,2.25,2.25,0,0,1,2.36,1.32v.07a11.88,11.88,0,0,1-2.89,7.87,11.19,11.19,0,0,1-8,4,12.13,12.13,0,0,1-8.89-3.21,8.08,8.08,0,0,1-2.56-4.31,4.12,4.12,0,0,1,.34-2.6,3.71,3.71,0,0,1,1.94-1.82,2.79,2.79,0,0,1,2.67.37,4.51,4.51,0,0,1,1.51,2.24,8,8,0,0,1,.41,2.65,7.5,7.5,0,0,1,0,1.34,8.62,8.62,0,0,1-.17,1.34,15.55,15.55,0,0,1-5.58,9.21,13.63,13.63,0,0,1-10.6,3,15.29,15.29,0,0,1-9.7-5.9,14.53,14.53,0,0,1-2.78-6,11.17,11.17,0,0,1,.49-6.52,5.53,5.53,0,0,1,2.14-2.52,4.59,4.59,0,0,1,3.24-.61,3.82,3.82,0,0,1,2.56,2,11.75,11.75,0,0,1,1.06,3,21.4,21.4,0,0,1-.74,12.17,17.39,17.39,0,0,1-7.35,9,17,17,0,0,1-10.83,2.37,14.13,14.13,0,0,1-5.13-1.66,13.9,13.9,0,0,1-4-3.39,14.42,14.42,0,0,1-3.31-9.18,12.14,12.14,0,0,1,1-4.58,5.56,5.56,0,0,1,3.1-3.19,4.09,4.09,0,0,1,2.22-.06,4.74,4.74,0,0,1,1.83,1.11,8.75,8.75,0,0,1,2.11,3.46,11.29,11.29,0,0,1,.67,3.75c0,.62,0,1.22,0,1.82s-.05,1.18-.11,1.75a30.05,30.05,0,0,1-3.37,11.23,29.2,29.2,0,0,1-4.28,6.07c-.57.63-1.05,1.07-1.37,1.37s-.49.44-.49.44.15-.17.46-.48.76-.76,1.32-1.4a30.68,30.68,0,0,0,4.18-6.09,30.22,30.22,0,0,0,3.26-11.16c.06-.57.09-1.15.1-1.74s0-1.19,0-1.8a11.14,11.14,0,0,0-.67-3.65,8.42,8.42,0,0,0-2-3.31,4.31,4.31,0,0,0-1.69-1,3.68,3.68,0,0,0-2,.06,5.21,5.21,0,0,0-2.87,3,11.87,11.87,0,0,0-.91,4.42,14.11,14.11,0,0,0,3.24,8.91,13.15,13.15,0,0,0,8.83,4.86,16.58,16.58,0,0,0,10.53-2.32,16.89,16.89,0,0,0,7.13-8.79,20.84,20.84,0,0,0,.71-11.88,11.09,11.09,0,0,0-1-2.87,3.33,3.33,0,0,0-2.23-1.77,4,4,0,0,0-2.86.56,4.82,4.82,0,0,0-1.93,2.29,10.54,10.54,0,0,0-.46,6.2,14,14,0,0,0,2.69,5.79,14.82,14.82,0,0,0,9.36,5.7,13.16,13.16,0,0,0,10.2-2.93,15,15,0,0,0,5.4-8.9,12,12,0,0,0,.2-2.58,7.47,7.47,0,0,0-.38-2.5,4.15,4.15,0,0,0-1.33-2,2.31,2.31,0,0,0-2.21-.3,3.27,3.27,0,0,0-1.68,1.58,3.64,3.64,0,0,0-.3,2.3,7.59,7.59,0,0,0,2.42,4,11.64,11.64,0,0,0,8.53,3.11,10.71,10.71,0,0,0,7.67-3.84,11.49,11.49,0,0,0,2.82-7.59v.07a1.83,1.83,0,0,0-2-1.07,3.17,3.17,0,0,0-2.14,1,2.37,2.37,0,0,0-.5,2.2,3.85,3.85,0,0,0,1.22,2,5.35,5.35,0,0,0,4.23,1.3,12.66,12.66,0,0,0,4.15-1.3l13.1-6.67,8.33-4.21,2.17-1.09Z" style="fill:#263238"></path><path d="M380.82,82.65c0,.15-21.15.27-47.24.27s-47.25-.12-47.25-.27,21.15-.26,47.25-.26S380.82,82.51,380.82,82.65Z" style="fill:#e0e0e0"></path><path d="M396.57,82.65a20.06,20.06,0,0,1-6.56,0,20.82,20.82,0,0,1,6.56,0Z" style="fill:#e0e0e0"></path><path d="M490.63,82.65c0,.15-19.3.27-43.09.27s-43.09-.12-43.09-.27,19.28-.26,43.09-.26S490.63,82.51,490.63,82.65Z" style="fill:#e0e0e0"></path><path d="M380.82,108.94c0,.15-21.15.26-47.24.26s-47.25-.11-47.25-.26,21.15-.26,47.25-.26S380.82,108.8,380.82,108.94Z" style="fill:#e0e0e0"></path><path d="M396.57,108.94a20.82,20.82,0,0,1-6.56,0,20.82,20.82,0,0,1,6.56,0Z" style="fill:#e0e0e0"></path><path d="M490.63,108.94c0,.15-19.3.26-43.09.26s-43.09-.11-43.09-.26,19.28-.26,43.09-.26S490.63,108.8,490.63,108.94Z" style="fill:#e0e0e0"></path></g><g id="freepik--Label--inject-8"><path d="M467.51,213l-24.79,57.61a1.45,1.45,0,0,0,1.92,1.91l19.11-8.44a1.46,1.46,0,0,1,2,.88l6.45,19.35a1.45,1.45,0,0,0,2.74,0l23.31-62.14Z" style="fill:#070202"></path><path d="M499.82,222.63l11.87,61.58a1.46,1.46,0,0,0,2.67.5L525.42,267a1.46,1.46,0,0,1,2.12-.39L543.75,279a1.46,1.46,0,0,0,2.3-1.5L530.39,213Z" style="fill:#070202"></path><g style="opacity:0.30000000000000004"><path d="M467.51,213l-24.79,57.61a1.45,1.45,0,0,0,1.92,1.91l19.11-8.44a1.46,1.46,0,0,1,2,.88l6.45,19.35a1.45,1.45,0,0,0,2.74,0l23.31-62.14Z"></path></g><g style="opacity:0.30000000000000004"><path d="M499.82,222.63l11.87,61.58a1.46,1.46,0,0,0,2.67.5L525.42,267a1.46,1.46,0,0,1,2.12-.39L543.75,279a1.46,1.46,0,0,0,2.3-1.5L530.39,213Z"></path></g><polygon points="501.02 112.06 509.16 106.08 515.56 113.89 524.93 110.13 529.18 119.29 539.2 117.97 541.03 127.9 551.06 129.11 550.37 139.19 559.78 142.85 556.61 152.44 564.81 158.34 559.36 166.84 565.84 174.58 558.43 181.46 562.79 190.57 553.91 195.39 555.86 205.3 546.06 207.76 545.48 217.84 535.38 217.79 532.31 227.41 522.54 224.85 517.17 233.4 508.35 228.49 501.02 235.44 493.7 228.49 484.88 233.4 479.51 224.85 469.74 227.41 466.67 217.79 456.57 217.84 455.99 207.76 446.19 205.3 448.14 195.39 439.26 190.57 443.61 181.46 436.21 174.58 442.69 166.84 437.24 158.34 445.44 152.44 442.26 142.85 451.68 139.19 450.99 129.11 461.02 127.9 462.85 117.97 472.87 119.29 477.12 110.13 486.49 113.89 492.88 106.08 501.02 112.06" style="fill:#070202"></polygon><circle cx="501.02" cy="170.76" r="45.75" transform="translate(26 404.29) rotate(-45)" style="fill:#fff"></circle><path d="M511,159.92l12.27,1.8a2.46,2.46,0,0,1,1.36,4.2l-8.89,8.65a2.45,2.45,0,0,0-.71,2.18L517.12,189a2.46,2.46,0,0,1-3.57,2.59l-11-5.79a2.44,2.44,0,0,0-2.29,0l-11,5.76a2.46,2.46,0,0,1-3.56-2.6l2.11-12.22a2.47,2.47,0,0,0-.7-2.18l-8.88-8.67a2.46,2.46,0,0,1,1.37-4.2l12.28-1.77a2.43,2.43,0,0,0,1.85-1.34l5.51-11.12a2.46,2.46,0,0,1,4.41,0l5.47,11.14A2.45,2.45,0,0,0,511,159.92Z" style="fill:#070202"></path></g><g id="freepik--Plant--inject-8"><path d="M678.76,207.1s-11.92,48.83-65.29,37.64C613.47,244.74,628.94,195.29,678.76,207.1Z" style="fill:#263238"></path><path d="M653,281.05s-24.5,36.53-65,11.27C588,292.32,615.6,256.35,653,281.05Z" style="fill:#263238"></path><path d="M613.94,336.78s-35.74,30.39-70-7.28C544,329.5,582.73,300.58,613.94,336.78Z" style="fill:#263238"></path><path d="M576.09,218.63s39.64,19.05,20.4,62.71C596.49,281.34,557,259.14,576.09,218.63Z" style="fill:#263238"></path><path d="M567.49,271.27s19.77,26.69-9.7,49.62C557.79,320.89,539.28,292.1,567.49,271.27Z" style="fill:#263238"></path><path d="M659.18,150s4.55,39.58-38.2,45.92C621,195.92,618.89,154.9,659.18,150Z" style="fill:#263238"></path><path d="M597.87,110s34.57,14.44,19.56,55C617.43,164.92,582.78,147.62,597.87,110Z" style="fill:#263238"></path><path d="M577,167.78s45.78,5.22,41.75,55.05C618.75,222.83,572,214.45,577,167.78Z" style="fill:#263238"></path><path d="M511.85,341.71s.19-.07.58-.18l1.71-.45c1.51-.4,3.74-.93,6.56-1.85a126.34,126.34,0,0,0,23-9.7,140.13,140.13,0,0,0,29.86-21.89,157.16,157.16,0,0,0,14.75-16.2l3.44-4.62,1.73-2.33c.56-.8,1.07-1.63,1.62-2.45l3.23-5,3-5.22c.49-.88,1-1.75,1.48-2.62s.89-1.8,1.33-2.69c.88-1.79,1.77-3.55,2.62-5.33s1.52-3.6,2.28-5.38c.37-.89.77-1.77,1.11-2.66l1-2.7,1.91-5.32c.53-1.79,1-3.57,1.57-5.32.26-.88.52-1.75.77-2.62s.43-1.75.65-2.62l1.21-5.16a154.52,154.52,0,0,0,3.41-36.9,159.51,159.51,0,0,0-2.78-24.87c-.63-2.9-1.18-5.13-1.51-6.65-.17-.75-.3-1.32-.39-1.73s-.11-.59-.11-.59.06.19.16.58l.44,1.72c.37,1.51,1,3.74,1.61,6.63a150.51,150.51,0,0,1-.36,61.91q-.6,2.55-1.21,5.18c-.21.87-.38,1.76-.64,2.63s-.51,1.75-.77,2.63l-1.57,5.33-1.91,5.34c-.32.9-.64,1.8-1,2.71s-.74,1.78-1.12,2.68l-2.28,5.4c-.85,1.78-1.75,3.55-2.62,5.34l-1.34,2.7c-.49.88-1,1.75-1.49,2.63l-3,5.24-3.25,5c-.55.82-1.06,1.65-1.63,2.45l-1.74,2.35-3.45,4.63A155.86,155.86,0,0,1,573.94,308a139.31,139.31,0,0,1-30,21.87,124,124,0,0,1-23.16,9.57c-2.83.89-5.08,1.39-6.6,1.75l-1.72.41Z" style="fill:#263238"></path><path d="M563.2,292.79a4,4,0,0,1,0,1.12c-.06.71-.17,1.75-.32,3-.31,2.55-.84,6.06-1.59,9.91s-1.59,7.31-2.26,9.78c-.34,1.24-.62,2.24-.84,2.93a4.55,4.55,0,0,1-.39,1.05,5.37,5.37,0,0,1,.19-1.1c.19-.81.42-1.8.68-3,.58-2.49,1.36-5.95,2.11-9.79s1.33-7.33,1.73-9.86c.19-1.18.36-2.18.49-3A5.23,5.23,0,0,1,563.2,292.79Z" style="fill:#141414"></path><path d="M572.94,332.43a4.27,4.27,0,0,1-1.12-.1l-3-.45c-2.56-.38-6.11-.88-10-1.34s-7.49-.79-10.07-1l-3.06-.27a5.32,5.32,0,0,1-1.12-.16,4.39,4.39,0,0,1,1.13,0c.73,0,1.78,0,3.07.1,2.6.13,6.17.4,10.11.86s7.48,1,10,1.5c1.28.24,2.3.45,3,.61A4.36,4.36,0,0,1,572.94,332.43Z" style="fill:#141414"></path><path d="M621.12,284a6.84,6.84,0,0,1-1.32.32l-3.62.71c-3.06.61-7.27,1.49-11.89,2.6s-8.77,2.27-11.77,3.13l-3.55,1a6.92,6.92,0,0,1-1.31.32,5.68,5.68,0,0,1,1.25-.52c.82-.3,2-.7,3.51-1.18,3-.95,7.11-2.16,11.74-3.28s8.87-1.95,12-2.46c1.54-.26,2.79-.44,3.66-.55A6.44,6.44,0,0,1,621.12,284Z" style="fill:#141414"></path><path d="M586.13,246.55a7.36,7.36,0,0,1,.81,1.21c.51.8,1.18,2,1.95,3.47a67.91,67.91,0,0,1,7.22,25.12c.14,1.67.2,3,.2,4a7.59,7.59,0,0,1,0,1.46,7.61,7.61,0,0,1-.16-1.45c-.05-.93-.17-2.28-.36-3.95a76.36,76.36,0,0,0-7.18-25c-.73-1.51-1.34-2.71-1.79-3.54A7.73,7.73,0,0,1,586.13,246.55Z" style="fill:#141414"></path><path d="M639.23,223.78a6.46,6.46,0,0,1-1.05.74l-2.94,1.91c-2.46,1.64-5.8,4-9.3,6.82s-6.5,5.62-8.61,7.69l-2.48,2.48a6.25,6.25,0,0,1-.94.87,6.46,6.46,0,0,1,.79-1c.54-.63,1.35-1.52,2.37-2.59a92.77,92.77,0,0,1,8.54-7.84,94.48,94.48,0,0,1,9.43-6.73c1.27-.78,2.3-1.38,3-1.78A5.43,5.43,0,0,1,639.23,223.78Z" style="fill:#141414"></path><path d="M589.24,187.63a2.13,2.13,0,0,1,.38.29l1,.9c.87.79,2.11,2,3.6,3.43,3,2.94,7,7.13,11.16,12s7.66,9.5,10.09,12.92c1.21,1.71,2.17,3.11,2.81,4.09l.73,1.14c.16.27.24.41.22.42a1.71,1.71,0,0,1-.31-.36l-.81-1.08-2.94-4c-2.5-3.36-6-7.94-10.19-12.8s-8.1-9.09-11-12.09L590.48,189l-.94-1C589.33,187.77,589.23,187.65,589.24,187.63Z" style="fill:#141414"></path><path d="M644.38,162.86a9.39,9.39,0,0,1-1,1.24l-2.78,3.28c-2.33,2.78-5.46,6.69-8.68,11.19s-5.9,8.73-7.78,11.84L622,194.09a8.86,8.86,0,0,1-.85,1.33,10.28,10.28,0,0,1,.67-1.43c.46-.9,1.17-2.19,2.07-3.77,1.8-3.16,4.45-7.43,7.68-11.95s6.42-8.41,8.82-11.13c1.2-1.37,2.2-2.45,2.91-3.18A9.16,9.16,0,0,1,644.38,162.86Z" style="fill:#141414"></path><path d="M603,125.28a12,12,0,0,1,.72,1.46c.43.94,1,2.32,1.76,4,1.45,3.42,3.37,8.2,5.34,13.53s3.62,10.2,4.75,13.75c.57,1.77,1,3.21,1.3,4.21a10.26,10.26,0,0,1,.4,1.57,8.79,8.79,0,0,1-.6-1.51l-1.45-4.16c-1.21-3.51-2.92-8.36-4.89-13.68s-3.83-10.11-5.19-13.57c-.66-1.67-1.2-3-1.61-4.11A7.86,7.86,0,0,1,603,125.28Z" style="fill:#141414"></path><path d="M80,196.23s11.27,46.14,61.7,35.57C141.67,231.8,127.05,185.07,80,196.23Z" style="fill:#263238"></path><path d="M104.34,266.11s23.15,34.52,61.4,10.65C165.74,276.76,139.66,242.77,104.34,266.11Z" style="fill:#263238"></path><path d="M141.22,318.77S175,347.5,207.35,311.9C207.35,311.9,170.72,284.56,141.22,318.77Z" style="fill:#263238"></path><path d="M177,207.13s-37.46,18-19.28,59.25C157.71,266.38,195.07,245.41,177,207.13Z" style="fill:#263238"></path><path d="M185.12,256.87s-18.68,25.22,9.16,46.89C194.28,303.76,211.78,276.56,185.12,256.87Z" style="fill:#263238"></path><path d="M98.48,142.27s-4.3,37.4,36.1,43.39C134.58,185.66,136.54,146.9,98.48,142.27Z" style="fill:#263238"></path><path d="M156.42,104.42s-32.68,13.65-18.49,52C137.93,156.37,170.67,140,156.42,104.42Z" style="fill:#263238"></path><path d="M176.14,159.07s-43.27,4.94-39.46,52C136.68,211.09,180.87,203.18,176.14,159.07Z" style="fill:#263238"></path><path d="M247.19,326.63l-.59-.11-1.71-.38c-1.5-.35-3.72-.82-6.53-1.65a142.09,142.09,0,0,1-23.17-8.69,140.59,140.59,0,0,1-15-8.24A138.41,138.41,0,0,1,184.32,296a140.72,140.72,0,0,1-15.51-15.18l-3.64-4.39c-1.18-1.51-2.3-3.08-3.47-4.63-.58-.78-1.16-1.57-1.75-2.35L158.34,267c-1.06-1.66-2.19-3.3-3.22-5-2-3.48-4-6.86-5.65-10.4-1.8-3.45-3.22-7-4.7-10.48a143.38,143.38,0,0,1-7.54-81.79c.6-2.86,1.21-5.05,1.56-6.55.19-.73.33-1.3.43-1.7s.17-.57.17-.57,0,.2-.12.59-.21,1-.38,1.7c-.32,1.51-.9,3.71-1.47,6.57a152.49,152.49,0,0,0-2.59,24.56,149.1,149.1,0,0,0,10.42,57c1.47,3.45,2.89,7,4.69,10.44,1.63,3.52,3.67,6.89,5.62,10.36,1,1.7,2.15,3.33,3.21,5l1.61,2.46,1.74,2.34c1.16,1.55,2.28,3.12,3.45,4.62l3.63,4.37a143.3,143.3,0,0,0,31.22,26.72,148.13,148.13,0,0,0,38,17.09c2.79.86,5,1.36,6.5,1.74l1.69.44Z" style="fill:#263238"></path><path d="M189.17,277.2a5.18,5.18,0,0,1,.23,1c.13.78.28,1.72.46,2.83.38,2.39.94,5.69,1.64,9.32s1.44,6.89,2,9.25c.25,1.09.46,2,.64,2.8a4,4,0,0,1,.17,1,4.59,4.59,0,0,1-.37-1c-.2-.64-.48-1.59-.8-2.76-.64-2.34-1.42-5.6-2.14-9.24s-1.2-7-1.49-9.37c-.15-1.2-.25-2.18-.3-2.86A4.11,4.11,0,0,1,189.17,277.2Z" style="fill:#141414"></path><path d="M180,314.66a5,5,0,0,1,1-.29c.66-.15,1.64-.35,2.84-.58,2.41-.45,5.76-1,9.48-1.42s7.1-.69,9.55-.8c1.23-.06,2.22-.1,2.9-.1a4.09,4.09,0,0,1,1.07,0,4.37,4.37,0,0,1-1.05.15l-2.89.26c-2.44.21-5.81.53-9.52,1s-7,.91-9.48,1.27l-2.87.41A4,4,0,0,1,180,314.66Z" style="fill:#141414"></path><path d="M134.44,268.88a5.34,5.34,0,0,1,1.28.11c.82.1,2,.27,3.45.51,2.92.48,6.92,1.26,11.3,2.32s8.29,2.2,11.1,3.11c1.4.45,2.53.84,3.31,1.12a6.16,6.16,0,0,1,1.18.49,5.41,5.41,0,0,1-1.25-.3l-3.35-1c-2.83-.81-6.75-1.89-11.12-2.95s-8.34-1.89-11.23-2.47l-3.42-.67A6.91,6.91,0,0,1,134.44,268.88Z" style="fill:#141414"></path><path d="M167.51,233.51a7.53,7.53,0,0,1-.6,1.24c-.42.78-1,1.92-1.69,3.35a73.18,73.18,0,0,0-4.4,11.51,74.66,74.66,0,0,0-2.39,12.09c-.17,1.57-.29,2.85-.34,3.73a6.8,6.8,0,0,1-.16,1.37,7.86,7.86,0,0,1-.05-1.38c0-.89.05-2.17.18-3.75a64.77,64.77,0,0,1,2.26-12.21,63.69,63.69,0,0,1,4.57-11.53c.73-1.41,1.36-2.53,1.84-3.28A6.17,6.17,0,0,1,167.51,233.51Z" style="fill:#141414"></path><path d="M117.33,212a6,6,0,0,1,1.09.53c.69.37,1.67.94,2.87,1.68a89.38,89.38,0,0,1,8.92,6.35,88.46,88.46,0,0,1,8.06,7.41c1,1,1.73,1.85,2.24,2.45a6.24,6.24,0,0,1,.75,1,5.26,5.26,0,0,1-.9-.83L138,228.22c-2-2-4.82-4.58-8.13-7.27s-6.47-4.9-8.79-6.44l-2.77-1.82A5.09,5.09,0,0,1,117.33,212Z" style="fill:#141414"></path><path d="M164.57,177.83a11.66,11.66,0,0,1-1.17,1.27l-3.29,3.35c-2.75,2.83-6.49,6.83-10.41,11.42s-7.26,8.92-9.63,12.1l-2.78,3.77a11.35,11.35,0,0,1-1.06,1.35,11.19,11.19,0,0,1,.89-1.47c.6-.93,1.51-2.26,2.65-3.87,2.3-3.24,5.61-7.61,9.54-12.22S157,185,159.85,182.19c1.42-1.39,2.58-2.5,3.41-3.24A11.93,11.93,0,0,1,164.57,177.83Z" style="fill:#141414"></path><path d="M112.46,154.42a8.6,8.6,0,0,1,1.08,1c.67.69,1.61,1.71,2.74,3A131.43,131.43,0,0,1,124.62,169c3,4.27,5.56,8.31,7.26,11.29.85,1.49,1.51,2.71,2,3.57a7.87,7.87,0,0,1,.63,1.36,9.39,9.39,0,0,1-.81-1.26l-2.09-3.48c-1.78-2.93-4.32-6.92-7.36-11.18s-6-7.95-8.2-10.58c-1-1.26-1.93-2.3-2.61-3.1A7.34,7.34,0,0,1,112.46,154.42Z" style="fill:#141414"></path><path d="M151.58,118.91a9.22,9.22,0,0,1-.5,1.45c-.39,1-.9,2.31-1.52,3.88-1.28,3.27-3,7.8-4.9,12.83S141.18,146.68,140,150c-.56,1.59-1,2.91-1.37,3.93a7.83,7.83,0,0,1-.57,1.42,9.14,9.14,0,0,1,.37-1.48c.27-1,.69-2.31,1.22-4,1.07-3.35,2.62-8,4.49-13s3.68-9.54,5.05-12.78c.69-1.62,1.26-2.92,1.67-3.82A8.19,8.19,0,0,1,151.58,118.91Z" style="fill:#141414"></path></g></svg>